<svg width="32" height="32" viewBox="0 0 32 32" fill="none" xmlns="http://www.w3.org/2000/svg">
<g clip-path="url(#clip0_24705_200)">
<path d="M22.1929 10.3857C22.1929 10.2286 22.0643 10.1 21.9071 10.1L19.55 10.1107L16 14.3429L12.4536 10.1143L10.0929 10.1036C9.93571 10.1036 9.80714 10.2286 9.80714 10.3893C9.80714 10.4571 9.83214 10.5214 9.875 10.575L14.5214 16.1107L9.875 21.6429C9.83184 21.6952 9.8079 21.7607 9.80714 21.8286C9.80714 21.9857 9.93571 22.1143 10.0929 22.1143L12.4536 22.1036L16 17.8714L19.5464 22.1L21.9036 22.1107C22.0607 22.1107 22.1893 21.9857 22.1893 21.825C22.1893 21.7571 22.1643 21.6929 22.1214 21.6393L17.4821 16.1071L22.1286 10.5714C22.1714 10.5214 22.1929 10.4536 22.1929 10.3857Z" fill="black"/>
<path d="M16 0.0357136C7.16429 0.0357136 -7.15256e-07 7.2 -7.15256e-07 16.0357C-7.15256e-07 24.8714 7.16429 32.0357 16 32.0357C24.8357 32.0357 32 24.8714 32 16.0357C32 7.2 24.8357 0.0357136 16 0.0357136ZM16 29.3214C8.66429 29.3214 2.71429 23.3714 2.71429 16.0357C2.71429 8.7 8.66429 2.75 16 2.75C23.3357 2.75 29.2857 8.7 29.2857 16.0357C29.2857 23.3714 23.3357 29.3214 16 29.3214Z" fill="black"/>
</g>
<defs>
<clipPath id="clip0_24705_200">
<rect width="32" height="32" fill="white"/>
</clipPath>
</defs>
</svg>
